# xmcd
#
# Track frame offsets: 
#        150
#        71750
#        141112
#        201337
#
# Disc length: 3707 seconds
#
# Revision: 3
# Processed by: cddbd v1.5.2PL0 Copyright (c) Steve Scherf et al.
# Submitted via: ExactAudioCopy v1.0b3
#
DISCID=3c0e7904
DTITLE=シューベルト - 交響曲第8番「グレイト｣朝比奈／大阪Pso1996名古屋
DYEAR=1996
DGENRE=Symphony
TTITLE0=第1楽章
TTITLE1=第2楽章
TTITLE2=第3楽章
TTITLE3=第4楽章
EXTD=
EXTT0=
EXTT1=
EXTT2=
EXTT3=
PLAYORDER=
